<?xml version="1.0" encoding="UTF-8" standalone="no"?>
<!-- Created with Inkscape (http://www.inkscape.org/) -->

<svg
   width="210mm"
   height="297mm"
   viewBox="0 0 210 297"
   version="1.1"
   id="svg1"
   xml:space="preserve"
   inkscape:version="1.4 (86a8ad7, 2024-10-11)"
   sodipodi:docname="logo_mono.svg"
   xmlns:inkscape="http://www.inkscape.org/namespaces/inkscape"
   xmlns:sodipodi="http://sodipodi.sourceforge.net/DTD/sodipodi-0.dtd"
   xmlns:xlink="http://www.w3.org/1999/xlink"
   xmlns="http://www.w3.org/2000/svg"
   xmlns:svg="http://www.w3.org/2000/svg"><sodipodi:namedview
     id="namedview1"
     pagecolor="#ffffff"
     bordercolor="#999999"
     borderopacity="1"
     inkscape:showpageshadow="0"
     inkscape:pageopacity="0"
     inkscape:pagecheckerboard="0"
     inkscape:deskcolor="#d1d1d1"
     inkscape:document-units="mm"
     inkscape:zoom="1.4378367"
     inkscape:cx="422.50973"
     inkscape:cy="531.70155"
     inkscape:window-width="1920"
     inkscape:window-height="1009"
     inkscape:window-x="-8"
     inkscape:window-y="-8"
     inkscape:window-maximized="1"
     inkscape:current-layer="layer1" /><defs
     id="defs1"><linearGradient
       id="swatch1"
       inkscape:swatch="solid"><stop
         style="stop-color:#000000;stop-opacity:1;"
         offset="0"
         id="stop1" /></linearGradient><linearGradient
       inkscape:collect="always"
       xlink:href="#swatch1"
       id="linearGradient1"
       x1="0.12695258"
       y1="308.19725"
       x2="641.01172"
       y2="308.19725"
       gradientUnits="userSpaceOnUse" /></defs><g
     inkscape:label="Camada 1"
     inkscape:groupmode="layer"
     id="layer1"><g
       style="clip-rule:evenodd;fill-rule:evenodd;image-rendering:optimizeQuality;shape-rendering:geometricPrecision;text-rendering:geometricPrecision;fill:url(#linearGradient1)"
       id="g1"
       transform="matrix(0.26458333,0,0,0.26458333,20.222281,66.887395)"><path
         id="path111"
         style="clip-rule:evenodd;fill:url(#linearGradient1);fill-opacity:1;fill-rule:evenodd;image-rendering:optimizeQuality;shape-rendering:geometricPrecision;text-rendering:geometricPrecision"
         d="m -3.8844506,-44.704539 -1.8344314,8.189631 -7.135405,1.544324 -6.035353,-6.416159 -6.748176,4.156389 2.250958,8.260204 -4.84658,4.35268 -8.044743,-2.96436 -4.650617,6.211583 6.149505,7.037317 -1.85295,8.9576501 -8.623237,1.6191829 -0.15257,8.7419307 8.84767,2.0689083 2.105851,7.83448 -5.918716,5.839001 3.828066,6.839884 8.311741,-2.546635 5.125739,4.525827 -1.686284,8.248775 7.179904,3.68952 4.815624,-6.572734 7.693722,1.428893 1.0527872,8.189631 6.8755937,-0.05772 2.4485803,-8.362778 7.0795728,-1.255746 5.051942,6.677023 6.608596,-3.793808 -1.617461,-8.109058 5.067972,-4.814977 8.419811,2.688924 4.236024,-5.995291 -5.841877,-6.424731 2.299603,-8.4956384 8.709749,-2.2606274 -0.198175,-7.439327 -8.360109,-1.9223333 -2.273347,-9.1042249 6.142043,-6.185296 -4.721374,-7.013031 -7.971222,3.056647 -5.253986,-4.550113 2.311488,-8.445923 -6.565755,-3.631804 -5.844089,6.311585 -7.4073765,-1.88119 -1.5947972,-8.226489 z M 0,-32.223944 A 32.698673,32.223831 0 0 1 32.698594,-4.0229567e-6 32.698673,32.223831 0 0 1 0,32.223936 32.698673,32.223831 0 0 1 -32.698594,-4.0229567e-6 32.698673,32.223831 0 0 1 0,-32.223944 Z"
         inkscape:label="Engrenagem"
         transform="matrix(7.0664353,0,0,6.8357683,321,308.78909)" /><g
         id="g124"
         inkscape:label="Capelo"
         style="fill:url(#linearGradient1)"><path
           id="path122"
           style="clip-rule:evenodd;fill:url(#linearGradient1);fill-opacity:1;fill-rule:evenodd;image-rendering:optimizeQuality;shape-rendering:geometricPrecision;text-rendering:geometricPrecision"
           d="m 343.98828,219.00391 c 0,0 -3.00865,8.94693 -0.41797,11.99609 25.66157,-1.85173 45.01042,5.76563 67.51563,8.64844 17.44648,3.90828 34.45195,2.57883 49.6582,9.90429 4.22132,2.03358 8.67741,4.86027 10.74219,9.06641 1.90728,3.8853 0.55664,12.97266 0.55664,12.97266 l -0.81641,77.26953 c -8.39664,2.2594 -14.23617,9.86719 -14.24804,18.5625 0.0131,8.35622 5.41576,15.74966 13.37304,18.30078 l -0.81836,33.58984 c 5.39323,1.38091 11.18101,1.97273 16.17969,0 l -2.21875,-34.10742 c 7.23238,-2.94776 11.96693,-9.97319 11.98438,-17.7832 -0.002,-8.69979 -5.83851,-16.31705 -14.23829,-18.58203 l 1.07646,-80.21916 -1.62528,-14.88436 c -0.39515,-3.61882 -2.53126,-7.10689 -5.16016,-9.625 -4.10009,-3.9273 -15.34375,-7.39453 -15.34375,-7.39453 -17.27472,-6.87576 -35.33854,-7.4388 -53.00781,-11.1582 -13.8099,-2.13932 -27.61979,-4.27865 -41.42969,-6.41797 z"
           sodipodi:nodetypes="cccaaccccccccccsacccc"
           inkscape:label="Corda Capelo" /><circle
           style="clip-rule:evenodd;fill:url(#linearGradient1);fill-opacity:1;fill-rule:evenodd;image-rendering:optimizeQuality;shape-rendering:geometricPrecision;text-rendering:geometricPrecision"
           id="path120"
           cx="321.87955"
           cy="226.74548"
           r="12.345109"
           inkscape:label="Bola Capelo" /><path
           style="clip-rule:evenodd;fill:url(#linearGradient1);fill-opacity:1;fill-rule:evenodd;image-rendering:optimizeQuality;shape-rendering:geometricPrecision;text-rendering:geometricPrecision"
           d="m 210.58844,287.52473 v 36.29815 c 0,0 42.81487,31.70151 67.96039,38.36951 26.9956,7.15859 56.78273,7.50591 83.78504,0.37267 26.04285,-6.87978 70.08755,-40.22172 70.08755,-40.22172 l -1.97273,-37.48179 -111.26171,50.50178 z"
           id="path118"
           sodipodi:nodetypes="ccaacccc"
           inkscape:label="Capelo Baixo" /><path
           id="path99-5"
           style="clip-rule:evenodd;display:inline;fill:url(#linearGradient1);fill-rule:evenodd;image-rendering:optimizeQuality;shape-rendering:geometricPrecision;text-rendering:geometricPrecision"
           inkscape:label="Capelo"
           d="M 327.03711,153 139,237.8125 326.47852,321.50781 465.9707,259.01367 c 0,0 -74.18064,-21.26449 -116.05859,-18.9707 -2.59459,0.14211 -5.93307,0.35535 -9.08203,0.55859 -4.22682,6.19879 -11.23948,9.91339 -18.74219,9.92774 -12.55746,-5.5e-4 -22.73686,-10.18082 -22.73633,-22.73828 5.5e-4,-12.5567 10.17963,-22.73578 22.73633,-22.73633 6.24062,0.002 12.20603,2.56928 16.49805,7.09961 4.09479,0.0602 8.03548,0.24494 11.32617,0.54882 26.57744,2.45432 51.87074,2.24326 75.75684,7.36963 27.25696,5.84981 46.6608,9.48761 63.7373,25.5503 6.89859,6.48903 24.55078,-9.48633 24.55078,-9.48633 z"
           sodipodi:nodetypes="ccccsccsccssscc" /></g><g
         id="g3"
         inkscape:label="Circuitos"
         style="fill:url(#linearGradient1)"><path
           id="path124"
           style="fill:url(#linearGradient1);fill-opacity:1"
           d="m 319.38477,383.89258 a 27.026339,27.026339 0 0 0 -27.02735,27.02539 27.026339,27.026339 0 0 0 20.80469,26.23633 v 77.01562 l 13.39062,-0.41797 -0.14062,-76.74414 a 27.026339,27.026339 0 0 0 19.99805,-26.08984 27.026339,27.026339 0 0 0 -27.02539,-27.02539 z m -0.36524,14.49804 a 13.949275,13.949275 0 0 1 13.94922,13.94922 13.949275,13.949275 0 0 1 -13.94922,13.94922 13.949275,13.949275 0 0 1 -13.94922,-13.94922 13.949275,13.949275 0 0 1 13.94922,-13.94922 z"
           inkscape:label="Circuito Meio" /><path
           id="path1"
           style="fill:url(#linearGradient1);fill-opacity:1"
           inkscape:label="Circuto Esquerdo"
           d="m 246.57031,380.26562 a 27.026339,27.026339 0 0 0 -27.02734,27.0254 27.026339,27.026339 0 0 0 20.80469,26.23632 v 77.01563 l 13.39062,-0.41797 -0.13867,-75.87109 3.06641,2.35937 19.11132,21.75977 0.83594,3.06836 -1.11523,48.96289 11.16015,-0.14063 1.11524,-53.00586 -1.8125,-6.83593 -21.6543,-22.90235 a 27.026339,27.026339 0 0 0 9.28906,-20.22851 27.026339,27.026339 0 0 0 -27.02539,-27.0254 z m -0.36523,14.49805 a 13.949275,13.949275 0 0 1 13.94922,13.94922 13.949275,13.949275 0 0 1 -13.94922,13.94922 13.949275,13.949275 0 0 1 -13.94922,-13.94922 13.949275,13.949275 0 0 1 13.94922,-13.94922 z m 7.98633,38.39649 -0.59375,0.34179 v -0.12109 a 27.026339,27.026339 0 0 0 0.59375,-0.2207 z" /><path
           id="path2"
           style="fill:url(#linearGradient1);fill-opacity:1"
           inkscape:label="Circuto Direito"
           d="m 395.28598,381.44925 a 27.026339,27.026339 0 0 1 27.02734,27.0254 27.026339,27.026339 0 0 1 -20.80469,26.23632 v 77.01563 l -13.39062,-0.41797 0.13867,-75.87109 -3.06641,2.35937 -19.11132,21.75977 -0.83594,3.06836 1.11523,48.96289 -11.16015,-0.14063 -1.11524,-53.00586 1.8125,-6.83593 21.6543,-22.90235 a 27.026339,27.026339 0 0 1 -9.28906,-20.22851 27.026339,27.026339 0 0 1 27.02539,-27.0254 z m 0.36523,14.49805 a 13.949275,13.949275 0 0 0 -13.94922,13.94922 13.949275,13.949275 0 0 0 13.94922,13.94922 13.949275,13.949275 0 0 0 13.94922,-13.94922 13.949275,13.949275 0 0 0 -13.94922,-13.94922 z m -7.98633,38.39649 0.59375,0.34179 v -0.12109 a 27.026339,27.026339 0 0 1 -0.59375,-0.2207 z" /></g></g></g></svg>
